<svg width="25" height="17" fill="none" xmlns="http://www.w3.org/2000/svg"><path d="M12.5 7.923a.592.592 0 0 0 .605-.577.592.592 0 0 0-.605-.577.592.592 0 0 0-.605.577c0 .319.27.577.605.577Z" stroke="#fff" stroke-linecap="round" stroke-linejoin="round"/><path d="M12.5 13.692c3.008 0 5.447-2.324 5.447-5.192 0-2.868-2.438-5.192-5.447-5.192-3.008 0-5.447 2.324-5.447 5.192 0 2.868 2.439 5.192 5.447 5.192Z" stroke="#fff" stroke-linecap="round" stroke-linejoin="round"/><path d="M1 8.5S5.107 1 12.5 1 24 8.5 24 8.5 19.893 16 12.5 16 1 8.5 1 8.5Z" stroke="#fff" stroke-linecap="round" stroke-linejoin="round"/></svg>