<svg width="53" height="23" fill="none" xmlns="http://www.w3.org/2000/svg"><path d="M3.989 19v-7.1h5.12v1.19h-3.75v1.71h1.93c.793 0 1.39.187 1.79.56.4.373.6.873.6 1.5 0 .42-.087.79-.26 1.11a1.88 1.88 0 0 1-.77.76c-.34.18-.77.27-1.29.27h-3.37Zm1.37-1.19h1.81c.266 0 .48-.047.64-.14.16-.1.276-.223.35-.37a1.1 1.1 0 0 0 .01-.94.697.697 0 0 0-.33-.35c-.16-.093-.39-.14-.69-.14h-1.79v1.94ZM16.169 19v-5.89h-2.08l-.04 1.2c-.034.94-.11 1.717-.23 2.33-.12.613-.294 1.097-.52 1.45a1.908 1.908 0 0 1-.86.74c-.34.14-.75.21-1.23.21v-1.19c.246 0 .46-.053.64-.16.18-.107.33-.3.45-.58.126-.28.226-.677.3-1.19a19.01 19.01 0 0 0 .15-1.99l.07-2.03h4.72V19h-1.37Zm6.892.05c-.52 0-.993-.1-1.42-.3a3.45 3.45 0 0 1-1.09-.81 3.965 3.965 0 0 1-.7-1.16 3.675 3.675 0 0 1-.25-1.33c0-.473.087-.923.26-1.35.18-.433.423-.817.73-1.15.313-.34.68-.607 1.1-.8.427-.2.893-.3 1.4-.3.513 0 .98.103 1.4.31.427.207.79.483 1.09.83.3.347.533.733.7 1.16.167.427.25.867.25 1.32 0 .467-.087.917-.26 1.35-.173.427-.417.81-.73 1.15a3.362 3.362 0 0 1-2.48 1.08Zm-2.06-3.6c0 .307.047.603.14.89.093.287.227.543.4.77.18.22.397.397.65.53.26.127.553.19.88.19.333 0 .63-.067.89-.2a2 2 0 0 0 .65-.55c.173-.233.303-.49.39-.77.093-.287.14-.573.14-.86 0-.307-.05-.6-.15-.88a2.322 2.322 0 0 0-.41-.76 1.797 1.797 0 0 0-.65-.53c-.253-.133-.54-.2-.86-.2-.34 0-.64.07-.9.21a1.924 1.924 0 0 0-.64.54 2.59 2.59 0 0 0-.4.76c-.087.28-.13.567-.13.86ZM28.61 19v-7.1h4.36v1.21h-2.99V19h-1.37Zm6.4 0v-7.1h1.37v5.16l3.44-5.16h1.28V19h-1.37v-5.1l-3.4 5.1h-1.32Zm8.637 0v-7.1h1.37v2.86h.7l2.11-2.86h1.54l-2.58 3.44 2.78 3.66h-1.67l-2.2-2.99h-.68V19h-1.37Z" fill="#000"/><path d="m5 8 21.284-6.99a.1.1 0 0 1 .062 0L48.5 8" stroke="#000" stroke-width="1.5" stroke-linecap="round"/></svg>