<svg width="11" height="15" fill="none" xmlns="http://www.w3.org/2000/svg"><path fill-rule="evenodd" clip-rule="evenodd" d="M4.267 1.423C4.205.843 3.98.765 3.778.696A13.211 13.211 0 0 0 3.23.525c-.19-.056-.524-.072-.878.16-.356.23-1.32.76-1.772 2.283-.452 1.521.142 3.3.222 3.548.084.246.97 4.018 3.517 6.124 2.119 1.748 2.673 1.691 3.213 1.796.542.103 1.92-.245 2.374-.898.452-.65.636-1.27.604-1.42-.033-.151-.201-.284-.444-.525-.24-.24-1.428-1.405-1.662-1.588-.232-.18-.408-.288-.691-.036-.283.251-1.04.786-1.27.942-.228.157-.401.133-.644-.105-.24-.24-1.067-.84-1.85-2.22-.61-1.074-.886-2.256-.962-2.617-.076-.358.123-.482.313-.594.17-.1.396-.277.593-.415.196-.139.28-.252.439-.43.156-.178.162-.373.137-.55-.025-.176-.129-1.87-.202-2.557Z" fill="#D4D4D6"/></svg>